<svg width="99" height="99" viewBox="0 0 99 99" fill="none" xmlns="http://www.w3.org/2000/svg">
<path d="M24.6263 82.088H42.6857C43.9915 82.0864 45.2434 81.567 46.1667 80.6437C47.09 79.7204 47.6094 78.4685 47.611 77.1627V34.4769C47.6094 33.1711 47.09 31.9193 46.1667 30.9959C45.2434 30.0726 43.9915 29.5532 42.6857 29.5517H24.6263C23.3205 29.5532 22.0686 30.0726 21.1453 30.9959C20.222 31.9193 19.7026 33.1711 19.701 34.4769V77.1627C19.7026 78.4685 20.222 79.7204 21.1453 80.6437C22.0686 81.567 23.3205 82.0864 24.6263 82.088ZM26.2681 36.1187H41.0439V75.5209H26.2681V36.1187Z" fill="black"/>
<path d="M83.7297 0H65.6704C64.3646 0.00152077 63.1127 0.520921 62.1894 1.44426C61.266 2.3676 60.7466 3.61948 60.7451 4.92528V77.1627C60.7466 78.4685 61.266 79.7203 62.1894 80.6437C63.1127 81.567 64.3646 82.0864 65.6704 82.0879H83.7297C85.0355 82.0864 86.2874 81.567 87.2108 80.6437C88.1341 79.7203 88.6535 78.4685 88.655 77.1627V4.92528C88.6535 3.61948 88.1341 2.3676 87.2108 1.44426C86.2874 0.520921 85.0355 0.00152077 83.7297 0ZM82.088 75.5209H67.3122V6.56704H82.088V75.5209Z" fill="black"/>
<path d="M6.56704 0H0V98.5055H98.5055V91.9385H6.56704V0Z" fill="black"/>
</svg>
